<?xml version="1.0" standalone="no"?>
<!DOCTYPE svg PUBLIC "-//W3C//DTD SVG 20010904//EN"
 "http://www.w3.org/TR/2001/REC-SVG-20010904/DTD/svg10.dtd">
<svg version="1.0" xmlns="http://www.w3.org/2000/svg"
 width="512.000000pt" height="512.000000pt" viewBox="0 0 512.000000 512.000000"
 preserveAspectRatio="xMidYMid meet">

<g transform="translate(0.000000,512.000000) scale(0.100000,-0.100000)"
fill="#000000" stroke="none">
<path d="M2051 4591 l-70 -89 -125 -7 -125 -7 -85 76 -84 77 -74 -32 c-40 -18
-76 -35 -79 -38 -4 -3 -1 -57 7 -120 12 -105 12 -116 -4 -135 -9 -12 -46 -57
-81 -99 l-64 -77 -121 0 -122 0 -23 -67 c-12 -38 -25 -73 -27 -79 -3 -7 38
-47 89 -90 l95 -78 7 -123 7 -123 -81 -86 -81 -85 41 -80 c30 -61 44 -79 57
-75 9 2 44 7 77 11 33 3 74 8 91 11 27 5 42 -4 130 -76 l99 -82 5 -121 5 -120
80 -27 c74 -25 80 -29 77 -52 -2 -20 13 -45 69 -110 40 -45 106 -122 147 -170
46 -53 91 -94 116 -107 29 -14 97 -26 239 -42 182 -20 201 -21 231 -6 32 15
66 67 66 102 0 40 -32 83 -82 110 l-52 28 -174 -17 c-172 -18 -174 -18 -195 2
-118 108 -249 217 -279 233 -20 10 -44 16 -54 12 -9 -3 15 34 54 84 l71 90
123 6 123 5 86 -79 87 -79 77 35 78 36 -7 62 c-4 34 -9 89 -12 122 l-5 60 86
93 87 92 104 0 c57 0 104 -2 104 -5 0 -4 -35 -100 -112 -308 -24 -66 -38 -117
-34 -130 7 -29 79 -77 115 -77 51 0 65 30 120 264 39 163 49 222 41 231 -16
19 -87 55 -94 48 -10 -10 -7 0 14 62 11 32 20 63 20 70 0 6 -40 44 -89 84
l-88 72 -7 91 c-12 172 -15 160 69 251 41 45 75 85 75 90 0 4 -16 39 -36 78
-34 69 -36 71 -67 66 -18 -3 -70 -9 -117 -12 l-85 -6 -91 78 -91 78 -8 120 -7
121 -76 27 c-43 15 -80 27 -84 27 -3 0 -38 -40 -77 -89z m-28 -306 c153 -32
295 -143 366 -286 164 -326 -32 -712 -392 -775 -324 -57 -625 192 -630 521 -2
158 48 279 158 390 80 81 143 118 247 145 88 23 160 24 251 5z"/>
<path d="M1766 4149 c-148 -51 -250 -172 -278 -330 -31 -175 71 -362 239 -442
63 -30 76 -32 173 -32 97 0 110 2 173 32 300 142 328 554 49 732 -99 62 -243
79 -356 40z m234 -164 c91 -47 134 -118 134 -220 0 -117 -61 -199 -172 -231
-70 -21 -124 -12 -192 29 -176 107 -139 375 61 436 42 13 131 6 169 -14z"/>
<path d="M2910 4310 c-49 -60 -90 -115 -90 -122 1 -7 11 -33 24 -58 l24 -45
-83 -90 -82 -90 8 -100 c4 -55 8 -103 9 -106 1 -19 195 -149 265 -178 433
-179 709 -597 707 -1071 -1 -296 -110 -567 -315 -786 -179 -192 -470 -333
-722 -351 l-91 -6 -34 109 -35 109 -5 252 -5 252 -30 31 c-16 17 -50 40 -75
51 -43 20 -58 20 -405 14 l-360 -7 -67 -40 c-37 -22 -72 -37 -77 -33 -15 9
-48 124 -67 235 -23 132 -15 319 20 455 21 80 26 123 26 221 l0 122 -67 58
c-38 32 -75 63 -83 70 -14 12 -74 6 -222 -21 -26 -4 -31 1 -58 55 l-30 60
-128 -6 c-70 -3 -132 -7 -138 -9 -10 -3 -148 -392 -149 -416 0 -4 83 -75 185
-159 102 -83 188 -161 192 -173 3 -12 11 -118 18 -236 l11 -214 -28 -31 c-123
-134 -270 -295 -286 -312 -18 -21 -17 -24 80 -218 95 -190 99 -196 128 -196
16 0 126 11 244 25 l214 24 154 -137 c85 -75 164 -144 176 -153 19 -16 21 -30
26 -262 4 -135 9 -248 11 -250 8 -8 407 -137 422 -137 10 0 273 307 308 360 3
4 86 15 185 24 99 9 203 19 232 22 l52 6 148 -143 c82 -79 162 -157 180 -173
l32 -28 198 102 c109 56 199 103 200 104 1 1 -9 109 -22 240 l-25 238 158 179
157 178 110 2 c61 1 170 4 244 8 l133 6 69 210 c37 115 65 213 61 216 -14 12
-367 302 -370 304 -3 3 -32 396 -32 440 0 25 28 60 169 210 l168 180 -99 198
-99 198 -57 -6 c-31 -4 -142 -14 -245 -24 l-188 -17 -179 153 -180 153 -2 243
-3 242 -27 12 c-14 7 -110 42 -212 78 l-185 64 -91 -109z m-945 -2450 c127
-11 235 -20 242 -20 6 0 14 -8 17 -17 5 -19 28 -250 28 -292 0 -13 20 -66 43
-116 l43 -93 -56 13 c-182 43 -359 134 -497 255 -67 59 -162 165 -189 211
l-17 30 53 24 c65 29 53 29 333 5z"/>
<path d="M2430 2882 c-47 -23 -80 -75 -80 -124 0 -62 26 -104 89 -144 49 -31
62 -35 107 -31 92 6 151 75 141 163 -6 59 -37 97 -102 128 -65 30 -106 33
-155 8z"/>
</g>
</svg>
